<?xml version="1.0" encoding="UTF-8"?>
<svg id="Capa_2" data-name="Capa 2" xmlns="http://www.w3.org/2000/svg" viewBox="0 0 93.25 93.24">
  <defs>
    <style>
      .cls-1 {
        fill: #8758e7;
      }

      .cls-2 {
        fill: #80baff;
      }

      .cls-3 {
        fill: #f7f5ff;
      }

      .cls-4 {
        fill: #ffaf45;
      }

      .cls-5 {
        fill: #fc8165;
      }
    </style>
  </defs>
  <g id="Capa_1-2" data-name="Capa 1">
    <g>
      <path class="cls-3" d="M93.25,46.62c0,11.45-4.13,21.94-10.97,30.05-.86,1.02-1.77,2.01-2.71,2.95-1.52,1.52-3.15,2.94-4.88,4.23-.84.64-1.71,1.25-2.6,1.83-.1.07-.2.13-.31.19-1.26.82-2.57,1.58-3.92,2.26-.31.16-.62.32-.94.47-1.45.7-2.94,1.33-4.46,1.88-2.02.73-4.1,1.33-6.24,1.77-3.1.65-6.3.99-9.59.99-1.41,0-2.81-.06-4.19-.19-1.44-.13-2.86-.32-4.26-.59-.78-.14-1.55-.3-2.31-.48-2.22-.52-4.37-1.2-6.45-2.04-1.85-.73-3.64-1.58-5.37-2.54-.2-.11-.4-.22-.59-.34-1.18-.66-2.32-1.37-3.42-2.15-.95-.65-1.88-1.35-2.78-2.09-.11-.08-.21-.16-.32-.25-1.27-1.06-2.49-2.18-3.65-3.36-.33-.33-.65-.67-.96-1.01-.89-.96-1.74-1.96-2.54-2.99-.79-1.02-1.54-2.07-2.24-3.15C2.78,64.74,0,56.01,0,46.62,0,20.87,20.88,0,46.63,0s46.62,20.87,46.62,46.62Z"/>
      <path class="cls-4" d="M82.28,76.67c-.86,1.02-1.77,2.01-2.71,2.95-1.52,1.52-3.15,2.94-4.88,4.23-.84.64-1.71,1.25-2.6,1.83-.1.07-.2.13-.31.19l.28-20.5s4.83,4.5,10.22,11.3Z"/>
      <path class="cls-2" d="M67.86,88.13c-.31.16-.62.32-.94.47-3.36,1.63-6.95,2.87-10.7,3.65-3.1.65-6.3.99-9.59.99-1.41,0-2.81-.06-4.19-.19-1.44-.13-2.86-.32-4.26-.59-.78-.14-1.55-.3-2.31-.48-2.22-.52-4.37-1.2-6.45-2.04l9.72-32.96s7.58-1.14,16.17-.24c5.61.59,10.1,18.8,12.55,31.39Z"/>
      <path class="cls-4" d="M55.31,56.74l-14.78.93s-1.48,15.36-2.35,34.79c-.78-.14-1.55-.3-2.31-.48-4.19-.99-8.15-2.54-11.82-4.58-.2-.11-.4-.22-.59-.34-1.18-.66-2.32-1.37-3.42-2.15-.95-.65-1.88-1.35-2.78-2.09-.11-.08-.21-.16-.32-.25-1.27-1.06-2.49-2.18-3.65-3.36-.33-.33-.65-.67-.96-1.01.28-6.35,1.15-11.08,2.92-12.73,7.86-7.31,27.36-9.75,27.36-9.75l9.12-.13s1.44.42,3.58,1.15Z"/>
      <path class="cls-4" d="M74.69,83.85c-.84.64-1.71,1.25-2.6,1.83-1.36.89-2.77,1.71-4.23,2.45-.31.16-.62.32-.94.47-1.45.7-2.94,1.33-4.46,1.88,0-.12-.02-.24-.03-.36-2.62-27.22-6.83-33.02-7.09-33.37,5.63,1.93,16.09,6.04,18.01,10.47.73,1.69,1.14,8.15,1.34,16.63Z"/>
      <path d="M46.03,21.8S36.42.36,25.46,11.25c-9.17,9.11,5.05,23.16,13.28,19.15,8.23-4.01,7.29-8.6,7.29-8.6Z"/>
      <path d="M60.66,39.3s3.95-4.49,2.7-11.35c-.85-4.65-2.94-6.13-2.94-6.13,0,0,3.07-6.4-6.33-5.89-9.4.52-14.86,5.21-14.86,5.21,0,0-4.33-2.05-6.18,2.99-1.86,5.04.17,12.4.17,12.4l27.44,2.76h0Z"/>
      <path class="cls-5" d="M40.13,47.34l.45,11.47s2.2,3.22,8.93,3.5c5.02.21,6.5-2.42,6.5-2.42l-1.6-9.99-12.22-2.19-2.05-.37h-.01Z"/>
      <path d="M40.12,46.64c.04.31.17.68.38,1.09,2.79,5.63,11.92,7.66,14.81,7.81l-.91-5.64-14.28-3.26Z"/>
      <path class="cls-5" d="M55.94,23.65s6.58,14.15,4.52,22.23c-2.06,8.08-9.41,6.99-13.82,5.54s-6.51-4.09-6.51-4.09c0,0-4.06,1.48-6.88-2.26-2.82-3.74-1.24-8.15,1.07-9.2,2.31-1.05,5.13.56,5.13.56l-2.27-4.1s8.66-21.33,18.77-8.69h0Z"/>
      <path d="M39.44,36.45s6.17,1.15,10.34-5.75c4.18-6.9,3.74-9.71,3.74-9.71l4.35,7s.88-4.91-1.12-8.01c-2-3.09-4.03-2.42-4.03-2.42l-13.51,3.58-3.42,10.92,3.63,4.38h.02Z"/>
      <path d="M55.7,41.88s-.09,0-.14-.02c-.27-.08-.42-.35-.34-.62.76-2.62-1.24-5.42-1.26-5.45-.16-.22-.11-.54.11-.7.22-.16.53-.11.7.11.09.13,2.31,3.22,1.41,6.31-.06.22-.26.36-.48.36h0Z"/>
      <path d="M38.94,43.21c-.13,0-.26-.05-.36-.15l-3.95-4.05c-.19-.2-.19-.51,0-.71.2-.19.52-.19.71,0l3.95,4.05c.19.2.19.51,0,.71-.1.09-.22.14-.35.14h0Z"/>
      <path d="M34.81,42.18c-.24,0-.45-.17-.49-.42-.05-.27.14-.53.41-.58l2.68-.45c.27-.04.53.14.58.41s-.14.53-.41.58l-2.68.45h-.09Z"/>
      <path d="M58.29,30.13h-.08l-2.55-.41c-.27-.04-.46-.3-.41-.57.04-.27.3-.46.57-.42l2.55.41c.27.04.46.3.42.57-.04.25-.25.42-.49.42h0Z"/>
      <path d="M47.76,31.94c-.18,0-.35-.1-.44-.27-.13-.24-.03-.55.21-.67l4.13-2.17c.24-.13.55-.04.67.21.13.24.03.55-.21.67l-4.13,2.17c-.07.04-.15.06-.23.06Z"/>
      <path d="M58.37,36c-.21,0-.41-.13-.48-.35l-.83-2.57c-.05-.16-.02-.33.08-.46l.78-.98c.17-.22.49-.25.7-.08.22.17.25.49.08.7l-.61.77.75,2.32c.08.26-.06.54-.32.63-.05.02-.1.02-.15.02Z"/>
      <path d="M50.16,36.79c-.21,0-.41-.13-.48-.35l-.83-2.57c-.05-.16-.02-.34.09-.47l1.08-1.29c.18-.21.49-.24.7-.06.21.18.24.49.06.7l-.9,1.08.74,2.31c.08.26-.06.54-.32.63-.05.02-.1.02-.15.02h.01Z"/>
      <path d="M53.68,45.67c-1.79,0-3.77-1.91-4.03-2.17-.2-.19-.2-.51,0-.71.2-.2.51-.2.71,0,.66.65,2.78,2.37,3.89,1.74.24-.13.54-.05.68.19.14.24.05.55-.19.68-.33.19-.69.27-1.06.27Z"/>
      <path class="cls-4" d="M20.04,84.91c-.95-.65-1.88-1.35-2.78-2.09-.11-.08-.21-.16-.32-.25-1.27-1.06-2.49-2.18-3.65-3.36-1.24-1.27-2.41-2.6-3.5-4-.79-1.02-1.54-2.07-2.24-3.15,6.28-6.01,11.48-9.31,11.48-9.31l1.01,22.16Z"/>
      <path class="cls-1" d="M50.52,62.86c-.34,0-.69-.02-1.06-.05-4.5-.42-8.98-3.46-9.17-3.59-.23-.16-.29-.47-.13-.69.16-.23.47-.29.7-.13.04.03,4.45,3.02,8.69,3.41,4.45.41,5.96-2.07,6.02-2.17.14-.24.44-.32.68-.18.24.14.32.44.18.68-.07.12-1.61,2.72-5.92,2.72h.01Z"/>
      <path class="cls-1" d="M36.15,74.33h-.06c-.27-.03-.47-.28-.44-.55l.5-4.39c.03-.28.29-.48.55-.44.27.03.47.28.44.55l-.5,4.39c-.03.26-.25.44-.5.44h.01Z"/>
      <path class="cls-1" d="M35.11,88.57h-.06c-.27-.03-.47-.28-.44-.55l.5-4.39c.03-.27.28-.48.55-.44.27.03.47.28.44.55l-.5,4.39c-.03.26-.25.44-.5.44h0Z"/>
    </g>
  </g>
</svg>