<?xml version="1.0" encoding="UTF-8"?>
<svg id="Capa_2" data-name="Capa 2" xmlns="http://www.w3.org/2000/svg" viewBox="0 0 87.72 87.72">
  <defs>
    <style>
      .cls-1 {
        fill: #fc907e;
      }

      .cls-2 {
        fill: #fff;
      }

      .cls-3 {
        fill: #8758e7;
      }

      .cls-4 {
        fill: #f7f5ff;
      }
    </style>
  </defs>
  <g id="Capa_1-2" data-name="Capa 1">
    <g>
      <path class="cls-4" d="M87.72,43.86c0,3.89-.51,7.68-1.47,11.27-4.97,18.77-22.06,32.59-42.39,32.59-13.68,0-25.89-6.26-33.93-16.06C3.73,64.09,0,54.41,0,43.86,0,19.63,19.63,0,43.86,0s43.86,19.63,43.86,43.86Z"/>
      <path class="cls-3" d="M86.25,55.13c-4.97,18.77-22.06,32.59-42.39,32.59-13.68,0-25.89-6.26-33.93-16.06,12.83-15.7,26.67-17.38,26.67-17.38,0,0-.33-2.37,0-3.01.24-.45,1.1-.87,1.58-1.06.19-.08.31-.12.31-.12,0,0,.7-.12,1.79-.29,2.19-.35,5.97-.9,8.91-1.12.89-.08,1.71-.11,2.38-.1.72,0,1.28.08,1.58.22.37.17.79,1.3.79,1.3,0,0,5.43-.84,12.93,0,3.15.36,10.99,1.81,19.39,5.04Z"/>
      <path class="cls-1" d="M36.45,30.52s-7.67-2.46-7.71,3.3c-.05,6.68,7.87,6,7.87,6l-.15-9.3Z"/>
      <path d="M33.29,36.86c-.15,0-.29-.07-.39-.2l-2.86-3.99c-.15-.21-.1-.51.11-.66.21-.15.51-.1.66.11l2.86,3.99c.15.21.1.51-.11.66-.08.06-.18.08-.27.08Z"/>
      <path d="M30.3,35.85c-.24,0-.44-.18-.47-.42-.03-.25.16-.49.41-.52l2.1-.24c.26-.03.49.16.52.41s-.16.49-.41.52l-2.1.24h-.06,0Z"/>
      <path class="cls-1" d="M51.21,45.02l.78,7.74s-2.84,1.89-6.58,2.3c-5.04.56-7.02-2.28-7.02-2.28l-.81-9.09,13.61,1.32h0Z"/>
      <path d="M51.21,45s-1.83,6.49-7.64,6.17c-4.69-.26-6.61-6.68-6.61-6.68l14.25.51Z"/>
      <path class="cls-1" d="M33.51,24.4s-1.91,14.48,2.73,20.38c4.99,6.32,11.81,3.66,14.24,1.4,3.28-3.05,3.66-6.9,3.66-6.9,0,0,4.96.52,6.21-3.6,1.32-4.33-2.03-7.4-4.48-7.38-2.46.03-2.69.5-2.69.5l.3-4.52s-16.33-15.06-19.96.12h0Z"/>
      <path d="M54.53,35.18c-.11,0-.24-.05-.33-.13-.19-.18-.19-.48,0-.67l3.45-3.58c.18-.19.48-.19.67,0,.19.18.19.48,0,.67l-3.45,3.58c-.09.09-.22.14-.34.14Z"/>
      <path d="M58.06,35.45c-.08,0-.17-.02-.24-.07l-2.37-1.46c-.22-.13-.29-.42-.15-.65.13-.23.42-.29.65-.15l2.37,1.46c.22.13.29.42.15.65-.08.14-.24.23-.4.23h0Z"/>
      <path d="M46.84,31.95c-.25,0-.46-.2-.47-.45l-.08-2.4c0-.26.2-.48.45-.49.26-.02.48.2.49.45l.08,2.4c0,.26-.2.48-.45.49h-.02Z"/>
      <path d="M37.67,32.3c-.25,0-.46-.2-.47-.45l-.08-2.4c0-.26.2-.48.45-.49.24-.03.48.2.49.45l.08,2.4c0,.26-.2.48-.45.49h-.02Z"/>
      <path d="M42.48,38.23c-.21,0-.4-.13-.45-.34-1.1-3.71-.18-6.88-.14-7.01.08-.24.34-.4.58-.32.24.08.4.34.32.58,0,.03-.87,3.05.14,6.47.08.25-.07.51-.32.58-.05,0-.09.02-.13.02h0Z"/>
      <path d="M36.04,27.41c-.11,0-.24-.05-.33-.13-.19-.18-.2-.48-.02-.67.95-1,2.68-1.15,2.76-1.15.25-.02.49.17.51.43.02.25-.17.49-.43.51-.02,0-1.44.12-2.15.87-.09.09-.22.14-.34.14Z"/>
      <path d="M47.83,27.21c-.08,0-.16-.02-.24-.07-.88-.52-2.29-.24-2.3-.24-.25.06-.5-.11-.56-.37-.05-.25.11-.5.37-.56.08-.02,1.77-.35,2.96.34.23.13.3.42.17.64-.08.15-.24.24-.4.24h0Z"/>
      <path d="M54.3,28.71s-1.12,4.52-1.7,4.38c-.58-.12-.27-7.11,1.35-7.54,1.62-.43.36,3.15.36,3.15Z"/>
      <path d="M43.18,42.33c-.25,0-.46-.2-.47-.45,0-.26.19-.48.45-.49.09,0,2.4-.12,3.29-2.1.1-.24.39-.34.62-.24s.34.39.24.62c-1.14,2.5-3.99,2.64-4.11,2.64h-.02Z"/>
      <path d="M53.55,28.13s-4.94-.2-8.35-2.61c-2.88-2.03-4.09-5.06-4.09-5.06,0,0-2.13-.18-5.06,1.81-2.94,1.99-2.93,7.73-2.93,7.73,0,0-6-9.46-3.49-13.02,2.5-3.56,6.97-.88,6.97-.88,0,0-1.04-6.31,7.85-4.24,8.9,2.07,11.23,9.57,11.23,9.57,0,0,2.99-.4,3.48,2.37s-.52,5.64-.52,5.64c0,0-1.35-1.19-3.33-.35l-1.98.83.21-1.78h0Z"/>
      <path class="cls-3" d="M38.49,50.1s1.71,1.62,5.66,1.72,7.42-3.1,7.42-3.1l2.55,4.68-6.3,3.85-10.57-.88v-4.73l1.22-1.52h0Z"/>
      <path class="cls-2" d="M42.85,57.73c-4.27,0-6.6-3.12-6.63-3.16-.15-.21-.1-.5.1-.66.21-.15.51-.1.66.1.12.17,3.03,4.03,8.47,2.37.24-.08.51.07.58.31.08.24-.07.51-.31.58-1.03.32-1.99.44-2.87.44h0Z"/>
    </g>
  </g>
</svg>